<svg xmlns="http://www.w3.org/2000/svg" version="1.1" xmlns:xlink="http://www.w3.org/1999/xlink" xmlns:svgjs="http://svgjs.com/svgjs" width="1440" height="560" preserveAspectRatio="none" viewBox="0 0 1440 560"><g mask="url(&quot;#SvgjsMask1010&quot;)" fill="none"><path d="M186.3682096889592 35.351704072302375L50.45335463396805-63.39621831283309-48.29456775116742 72.51863674215807 87.62028730382374 171.26655912729353z" fill="rgba(224, 33, 33, 0.4)" className="triangle-float2"></path><path d="M12.209,53.832C26.866,53.665,39.413,44.83,47.203,32.413C55.604,19.022,61.41,2.05,53.155,-11.431C45.123,-24.548,27.56,-25.692,12.209,-24.733C-1.166,-23.898,-13.617,-18.165,-20.745,-6.817C-28.382,5.342,-31.05,20.61,-24.195,33.227C-17.06,46.359,-2.735,54.002,12.209,53.832" fill="rgba(224, 33, 33, 0.4)" className="triangle-float2"></path><path d="M133.687,288.719C189.281,288.313,240.222,259.379,268.951,211.782C298.718,162.465,308.153,99.418,277.316,50.763C248.075,4.627,188.307,-2.122,133.687,-1.64C80.195,-1.168,23.345,8.284,-5.618,53.259C-36.669,101.476,-34.244,164.425,-5.042,213.783C23.642,262.265,77.357,289.13,133.687,288.719" fill="rgba(224, 33, 33, 0.4)" className="triangle-float3"></path><path d="M1480.2319862178088 85.05673273897702L1470.470543030071-26.517073447298486 1307.9905553445267 43.91199442744592z" fill="rgba(224, 33, 33, 0.4)" className="triangle-float2"></path><path d="M1505.5004418117185 107.573877707415L1442.5665341178453-48.19300985980527 1286.7996465506249 14.74089783406798 1349.7335542444982 170.50778540128823z" fill="rgba(224, 33, 33, 0.4)" className="triangle-float2"></path><path d="M1467.0660536627242-46.578033472686506L1299.9863752408544-29.017251643720726 1317.54715706982 138.0624267781492 1484.62683549169 120.5016449491834z" fill="rgba(224, 33, 33, 0.4)" className="triangle-float3"></path><path d="M135.43553032627375 609.4145091721527L158.81661128756474 443.04947362356893-30.92950522231004 586.0334282108618z" fill="rgba(224, 33, 33, 0.4)" className="triangle-float3"></path><path d="M142.312,738.015C201.097,742.982,265.809,729.708,296.705,679.451C328.692,627.421,313.81,561.822,283.079,509.04C252.575,456.647,202.913,412.538,142.312,414.275C83.914,415.948,39.893,463.94,14.858,516.726C-6.655,562.086,2.283,613.189,27.339,656.692C52.45,700.291,92.178,733.779,142.312,738.015" fill="rgba(224, 33, 33, 0.4)" className="triangle-float1"></path><path d="M-54.94 428.27 a35.21 35.21 0 1 0 70.42 0 a35.21 35.21 0 1 0 -70.42 0z" fill="rgba(224, 33, 33, 0.4)" className="triangle-float3"></path><path d="M1246.42 454.91 a88.49 88.49 0 1 0 176.98 0 a88.49 88.49 0 1 0 -176.98 0z" fill="rgba(224, 33, 33, 0.4)" className="triangle-float2"></path><path d="M1387.946,579.133C1417.785,579.915,1450.722,578.553,1467.604,553.937C1486.327,526.636,1486.581,489.186,1468.768,461.283C1452.048,435.092,1418.983,427.655,1387.946,429.154C1359.808,430.513,1334.138,444.356,1319.605,468.489C1304.571,493.455,1299.891,525.147,1315.206,549.942C1329.921,573.766,1359.954,578.399,1387.946,579.133" fill="rgba(224, 33, 33, 0.4)" className="triangle-float2"></path><path d="M1436.114,674.238C1478.804,672.049,1518.531,653.034,1541.005,616.673C1564.745,578.262,1571.405,530.133,1549.629,490.576C1527.14,449.723,1482.741,425.34,1436.114,426.134C1390.787,426.906,1352.979,455.793,1329.107,494.333C1303.636,535.454,1286.053,586.903,1310.78,628.475C1335.149,669.445,1388.508,676.679,1436.114,674.238" fill="rgba(224, 33, 33, 0.4)" className="triangle-float1"></path></g><defs><mask id="SvgjsMask1010"><rect width="1440" height="560" fill="#ffffff"></rect></mask><style>
            @keyframes float1 {
                0%{transform: translate(0, 0)}
                50%{transform: translate(-10px, 0)}
                100%{transform: translate(0, 0)}
            }

            .triangle-float1 {
                animation: float1 5s infinite;
            }

            @keyframes float2 {
                0%{transform: translate(0, 0)}
                50%{transform: translate(-5px, -5px)}
                100%{transform: translate(0, 0)}
            }

            .triangle-float2 {
                animation: float2 4s infinite;
            }

            @keyframes float3 {
                0%{transform: translate(0, 0)}
                50%{transform: translate(0, -10px)}
                100%{transform: translate(0, 0)}
            }

            .triangle-float3 {
                animation: float3 6s infinite;
            }
        </style></defs></svg>